{"glyphs":{":":{"x_min":0,"x_max":228,"ha":228,"o":"m 45 83 l 59 213 l 189 213 l 175 83 z m 80 412 l 94 542 l 224 542 l 210 412 z"},"$":{"x_min":0,"x_max":493,"ha":493,"o":"m 209 -87 l 217 -9 q 31 -3 31 207 q 31 221 32 236 l 162 264 q 160 244 160 227 q 160 102 238 102 q 273 102 292 122 q 311 143 314 179 q 315 189 315 198 q 315 222 309 241 q 299 270 285 287 q 271 304 244 331 l 145 426 q 103 466 85 510 q 72 542 72 584 q 72 601 74 620 q 83 710 140 761 q 196 813 287 818 l 294 892 l 335 892 l 328 818 q 375 814 406 797 q 438 779 455 748 q 472 717 478 682 q 483 651 482 613 q 482 607 482 601 l 356 575 q 358 592 358 607 q 358 618 357 628 q 355 653 349 672 q 343 691 328 701 q 314 710 293 710 q 290 710 287 710 q 253 708 233 688 q 213 668 209 634 q 208 625 208 616 q 208 589 218 570 q 230 545 259 517 l 358 422 q 408 373 435 317 q 455 275 455 222 q 455 206 453 188 q 444 107 391 54 q 338 0 258 -8 l 250 -87 z"},"?":{"x_min":0,"x_max":488,"ha":488,"o":"m 145 207 l 158 333 q 199 367 229 396 q 260 425 290 461 q 320 498 338 538 q 356 578 359 619 q 360 625 360 630 q 360 662 344 682 q 324 705 290 705 q 254 705 235 683 q 215 661 215 625 q 215 620 216 604 q 217 589 218 583 l 92 559 q 88 594 88 607 q 88 610 88 612 q 88 618 88 624 q 88 709 142 764 q 199 821 301 821 q 403 821 452 767 q 493 722 493 647 q 493 631 491 614 q 487 577 473 540 q 458 503 439 474 q 420 444 392 412 q 363 380 337 357 q 311 333 275 303 l 266 207 z m 118 0 l 132 131 l 265 131 l 250 0 z"},"<":{"x_min":0,"x_max":384,"ha":384,"o":"m 308 56 l 33 263 l 46 383 l 364 591 l 351 465 l 138 324 l 321 181 z"},"'":{"x_min":0,"x_max":327,"ha":327,"o":"m 102 540 l 130 810 l 245 810 l 171 540 z"},"=":{"x_min":0,"x_max":428,"ha":428,"o":"m 62 266 l 71 358 l 384 358 l 374 266 z m 81 450 l 90 542 l 403 542 l 393 450 z"},"a":{"x_min":0,"x_max":450,"ha":450,"o":"m 138 -9 q 83 -8 53 34 q 27 69 27 113 q 27 121 28 129 q 32 159 41 184 q 50 210 64 229 q 77 249 95 265 q 114 282 133 294 q 152 306 175 317 q 199 329 219 337 q 240 345 265 354 q 278 359 285 361 l 290 409 q 291 425 291 438 q 291 445 291 451 q 290 469 280 478 q 271 487 251 487 q 204 487 197 421 l 191 386 l 62 391 q 63 394 64 402 q 65 410 66 412 q 81 502 133 545 q 185 587 272 587 q 358 587 394 541 q 423 503 423 442 q 423 426 421 409 l 393 145 q 388 99 388 42 q 388 21 389 0 l 268 0 q 262 55 262 85 q 246 45 214 18 q 183 -9 138 -9 z m 200 96 q 216 96 233 108 q 250 121 261 133 l 277 292 q 169 235 161 164 q 160 156 160 149 q 160 127 168 114 q 178 96 200 96 z"},"L":{"x_min":0,"x_max":416,"ha":416,"o":"m 36 0 l 121 810 l 266 810 l 191 100 l 386 100 l 375 0 z"},"3":{"x_min":0,"x_max":515,"ha":515,"o":"m 231 -11 q 125 -11 79 49 q 42 96 42 175 q 42 195 45 216 l 48 245 l 184 245 q 182 228 182 223 q 180 203 180 186 q 180 171 181 159 q 184 132 199 117 q 214 102 245 102 q 264 102 278 109 q 292 115 302 125 q 311 136 317 154 q 323 171 326 189 q 329 206 332 232 q 334 251 334 268 q 334 287 331 303 q 326 331 306 349 q 287 366 251 368 q 248 369 231 369 l 244 485 l 261 485 q 315 487 340 513 q 364 540 371 601 q 373 616 373 629 q 373 663 363 683 q 349 710 307 709 q 264 709 246 680 q 228 650 220 592 l 217 566 l 82 566 l 85 603 q 96 706 157 762 q 217 819 318 819 q 420 819 469 764 q 508 718 508 641 q 508 624 506 605 q 499 537 464 491 q 430 445 378 431 q 429 412 452 363 q 469 327 469 274 q 469 255 467 234 q 461 177 445 134 q 429 90 401 57 q 373 24 330 7 q 287 -11 231 -11 z"},";":{"x_min":0,"x_max":243,"ha":243,"o":"m 48 -76 l 39 -24 q 104 -21 111 47 l 41 47 l 55 177 l 187 177 l 174 55 q 161 -76 48 -76 z m 82 438 l 96 571 l 226 571 l 212 438 z"},"J":{"x_min":0,"x_max":323,"ha":323,"o":"m -17 -17 l -7 85 q -5 85 -4 85 q 59 85 83 104 q 106 125 113 189 l 178 810 l 322 810 l 257 185 q 250 132 238 95 q 226 59 202 33 q 179 7 142 -5 q 105 -17 52 -17 z"},"V":{"x_min":0,"x_max":514,"ha":514,"o":"m 164 0 l 83 810 l 211 810 l 261 244 l 422 810 l 553 810 l 302 0 z"},"\"":{"x_min":0,"x_max":375,"ha":375,"o":"m 96 540 l 125 810 l 241 810 l 163 540 z m 261 540 l 290 810 l 406 810 l 328 540 z"},"7":{"x_min":0,"x_max":515,"ha":515,"o":"m 125 0 l 354 705 l 120 705 l 131 810 l 499 810 l 491 720 l 256 0 z"},"S":{"x_min":0,"x_max":490,"ha":490,"o":"m 237 -10 q 39 -10 39 205 q 39 220 40 236 l 168 264 q 167 244 167 227 q 167 102 246 102 q 280 102 299 122 q 318 143 322 179 q 323 188 323 197 q 323 221 316 241 q 307 270 292 287 q 278 304 251 331 l 152 426 q 110 466 92 510 q 79 542 79 585 q 79 602 81 620 q 91 714 151 766 q 212 818 308 819 q 310 819 312 819 q 353 819 384 809 q 417 798 437 779 q 458 759 470 730 q 482 702 486 671 q 490 646 489 615 q 489 608 489 601 l 363 575 q 365 591 365 606 q 365 617 364 628 q 362 653 356 672 q 350 691 334 701 q 321 710 300 710 q 297 710 294 710 q 260 708 240 688 q 220 668 216 634 q 215 625 215 616 q 215 590 225 570 q 237 545 266 517 l 365 422 q 415 373 441 317 q 461 275 462 222 q 462 206 460 188 q 451 100 389 45 q 328 -10 237 -10 z"},"}":{"x_min":0,"x_max":353,"ha":353,"o":"m -2 -197 l 8 -102 q 26 -102 37 -101 q 48 -100 58 -95 q 67 -89 72 -83 q 76 -77 81 -62 q 85 -47 87 -31 q 89 -16 92 13 l 106 146 q 114 224 137 264 q 160 303 200 312 q 162 321 147 361 q 138 386 138 426 q 138 450 141 478 l 155 611 q 158 641 159 656 q 160 671 159 686 q 158 702 155 708 q 151 714 143 719 q 135 725 124 726 q 113 727 95 727 l 105 821 q 135 821 157 820 q 180 819 199 816 q 218 813 232 809 q 246 805 257 798 q 268 790 275 782 q 282 774 287 761 q 292 748 293 735 q 295 722 295 702 q 295 682 293 662 q 292 643 289 615 l 276 495 q 273 462 271 442 q 271 430 271 419 q 271 412 271 406 q 272 389 275 381 q 277 373 284 367 q 291 362 300 360 q 308 359 323 359 l 313 266 q 295 266 285 263 q 275 260 267 253 q 259 247 254 230 q 249 213 245 191 q 242 169 238 129 l 225 10 q 221 -26 218 -49 q 215 -71 209 -94 q 203 -118 196 -131 q 188 -145 176 -157 q 164 -170 149 -177 q 134 -183 111 -188 q 88 -193 62 -195 q 35 -197 -2 -197 z"},"Z":{"x_min":0,"x_max":424,"ha":424,"o":"m 12 0 l 22 95 l 303 709 l 98 709 l 108 810 l 462 810 l 455 740 l 160 100 l 388 100 l 377 0 z"},"x":{"x_min":0,"x_max":411,"ha":411,"o":"m -16 0 l 142 309 l 48 578 l 179 578 l 236 417 l 316 578 l 435 578 l 280 291 l 382 0 l 250 0 l 188 177 l 104 0 z"},")":{"x_min":0,"x_max":286,"ha":286,"o":"m -13 -193 l -3 -102 q 12 -102 26 -93 q 39 -85 50 -67 q 61 -50 70 -29 q 79 -8 87 23 q 94 55 100 84 q 106 113 112 155 q 118 196 122 230 q 126 264 131 312 q 135 350 137 377 q 140 404 143 439 q 146 474 147 499 q 148 523 149 553 q 149 562 149 569 q 149 588 148 602 q 146 622 144 644 q 142 665 136 679 q 131 693 124 704 q 117 716 106 721 q 96 727 83 727 l 93 818 q 136 818 168 802 q 201 787 221 763 q 241 739 252 698 q 264 656 269 618 q 272 589 272 549 q 272 536 272 522 q 271 464 267 420 q 264 377 257 312 q 252 263 248 229 q 243 194 236 149 q 229 103 221 70 q 214 38 202 0 q 190 -39 176 -65 q 162 -91 143 -117 q 124 -143 102 -159 q 79 -174 50 -184 q 21 -193 -13 -193 z"},"&":{"x_min":0,"x_max":593,"ha":593,"o":"m 203 -10 q 122 -10 79 41 q 43 84 43 149 q 43 162 44 175 q 52 246 91 307 q 130 368 185 415 q 179 429 164 465 q 148 501 141 522 q 133 542 127 575 q 123 596 123 616 q 123 627 124 638 q 132 717 185 768 q 237 819 316 819 q 392 818 438 775 q 476 738 476 680 q 476 670 475 659 q 473 639 468 619 q 462 600 452 580 q 442 560 434 545 q 426 531 409 511 q 393 491 385 481 q 377 472 356 452 q 336 432 331 427 q 326 422 306 403 l 393 226 q 420 273 441 384 l 556 384 q 548 319 522 257 q 496 196 460 146 q 470 132 489 122 q 508 111 528 110 l 516 -9 q 503 -11 497 -11 q 485 -11 474 -9 q 463 -7 453 -1 q 442 4 435 9 q 428 13 418 22 q 408 32 404 36 q 399 40 389 52 q 378 63 376 65 q 345 30 301 10 q 256 -10 203 -10 z m 215 91 q 268 91 312 141 q 227 313 225 322 q 202 293 186 255 q 170 217 167 179 q 166 170 166 161 q 166 134 175 116 q 187 91 215 91 z m 271 474 q 298 509 324 563 q 350 617 355 662 q 355 667 355 671 q 355 689 345 701 q 332 716 308 716 q 282 716 266 694 q 250 672 247 641 q 246 630 246 619 q 246 607 246 597 q 247 586 249 574 q 250 561 252 552 q 254 542 257 530 q 260 517 261 510 q 263 502 266 490 q 270 479 271 474 z"},"_":{"x_min":0,"x_max":355,"ha":355,"o":"m -40 -151 l -30 -56 l 325 -56 l 315 -151 z"},"v":{"x_min":0,"x_max":401,"ha":401,"o":"m 101 0 l 49 578 l 181 578 l 195 154 l 297 578 l 426 578 l 254 0 z"},"O":{"x_min":0,"x_max":560,"ha":560,"o":"m 265 98 q 287 98 304 104 q 320 111 331 121 q 341 131 348 148 q 355 166 359 183 q 362 200 365 224 l 403 589 q 405 611 405 629 q 405 642 404 653 q 402 680 384 696 q 366 712 330 712 q 303 712 284 703 q 266 695 255 677 q 245 659 240 639 q 234 619 231 589 l 193 224 q 191 200 191 181 q 191 170 192 159 q 194 131 212 114 q 229 98 265 98 z m 254 -10 q 190 -10 147 8 q 104 26 81 62 q 58 97 50 145 q 46 170 46 199 q 46 226 50 257 l 82 556 q 95 686 156 752 q 217 819 341 819 q 466 819 513 752 q 549 700 549 611 q 549 585 546 556 l 514 257 q 500 127 439 59 q 377 -10 254 -10 z"},"(":{"x_min":0,"x_max":316,"ha":316,"o":"m 240 -193 q 197 -193 165 -178 q 132 -162 112 -138 q 92 -113 81 -72 q 69 -30 64 8 q 61 38 61 79 q 62 91 62 104 q 62 161 66 204 q 69 247 76 310 q 83 375 89 419 q 95 463 105 521 q 116 579 129 618 q 142 656 162 698 q 182 739 207 763 q 232 787 268 802 q 303 818 347 818 l 337 727 q 324 727 313 721 q 301 716 292 704 q 282 692 274 678 q 266 664 259 643 q 251 621 246 600 q 240 580 234 551 q 229 521 225 497 q 221 472 217 437 q 212 402 209 375 q 206 348 202 310 q 197 263 194 229 q 191 194 188 153 q 185 111 185 82 q 185 76 185 70 q 185 46 186 21 q 187 -10 191 -30 q 196 -51 204 -68 q 211 -85 223 -94 q 234 -102 250 -102 z"},"C":{"x_min":0,"x_max":536,"ha":536,"o":"m 251 -10 q 199 -10 160 3 q 122 17 99 41 q 76 64 62 99 q 50 133 48 174 q 47 186 48 197 q 48 229 51 263 l 81 544 q 87 610 104 659 q 120 707 149 744 q 178 781 226 800 q 273 819 338 819 q 398 819 439 803 q 480 787 502 755 q 523 725 530 683 q 534 660 534 633 q 534 610 531 585 l 524 516 l 385 516 l 392 583 q 396 622 396 644 q 396 658 395 666 q 387 706 344 711 q 336 712 328 712 q 305 712 288 705 q 271 697 262 686 q 252 675 245 656 q 238 636 235 618 q 232 601 229 572 l 194 233 q 191 207 191 186 q 191 148 201 128 q 216 98 263 98 q 277 98 289 100 q 300 103 309 108 q 317 114 324 120 q 330 126 335 137 q 339 148 343 156 q 346 165 348 180 q 351 195 352 205 q 354 215 355 233 l 363 304 l 501 304 l 495 238 q 490 192 480 156 q 470 120 451 88 q 432 56 406 35 q 379 14 340 2 q 301 -10 251 -10 z"},"W":{"x_min":0,"x_max":719,"ha":719,"o":"m 126 0 l 93 810 l 215 810 l 228 282 l 372 810 l 469 810 l 504 282 l 628 810 l 747 810 l 544 0 l 431 0 l 394 546 l 244 0 z"},"A":{"x_min":0,"x_max":517,"ha":517,"o":"m -6 0 l 245 810 l 394 810 l 474 0 l 339 0 l 326 189 l 184 189 l 130 0 z m 209 285 l 320 285 l 300 619 z"},"f":{"x_min":0,"x_max":303,"ha":303,"o":"m 57 0 l 108 482 l 44 482 l 54 578 l 118 578 l 121 608 q 125 644 130 668 q 136 693 147 716 q 158 740 175 754 q 191 768 218 776 q 245 784 281 784 q 309 784 354 779 l 344 679 q 340 680 327 682 q 313 684 307 684 q 282 684 271 668 q 259 652 256 622 l 251 578 l 333 578 l 323 482 l 241 482 l 190 0 z"},"Q":{"x_min":0,"x_max":560,"ha":560,"o":"m 408 -167 q 376 -146 336 -100 q 295 -53 271 -9 q 266 -10 254 -10 q 190 -10 147 8 q 104 26 81 62 q 58 97 50 145 q 46 170 46 199 q 46 226 50 257 l 82 556 q 95 686 156 752 q 217 819 341 819 q 466 819 513 752 q 549 700 549 611 q 549 585 546 556 l 514 257 q 495 68 376 14 q 394 -16 425 -52 q 457 -87 478 -104 z m 265 98 q 287 98 304 104 q 320 111 331 121 q 341 131 348 148 q 355 166 359 183 q 362 200 365 224 l 403 589 q 405 611 405 629 q 405 642 404 653 q 402 680 384 696 q 366 712 330 712 q 303 712 284 703 q 266 695 255 677 q 245 659 240 639 q 234 619 231 589 l 193 224 q 191 200 191 181 q 191 170 192 159 q 194 131 212 114 q 229 98 265 98 z"},"w":{"x_min":0,"x_max":594,"ha":594,"o":"m 90 0 l 62 578 l 172 578 l 183 199 l 286 578 l 384 578 l 404 197 l 498 578 l 605 578 l 452 0 l 339 0 l 312 365 l 206 0 z"},"-":{"x_min":0,"x_max":350,"ha":350,"o":"m 59 269 l 69 363 l 308 363 l 298 269 z"},"E":{"x_min":0,"x_max":424,"ha":424,"o":"m 36 0 l 121 810 l 458 810 l 447 707 l 255 707 l 230 472 l 382 472 l 372 370 l 220 370 l 191 100 l 386 100 l 375 0 z"},"s":{"x_min":0,"x_max":394,"ha":394,"o":"m 175 -9 q 104 -9 62 31 q 21 72 13 147 l 119 184 q 130 86 186 86 q 187 86 188 86 q 210 87 226 102 q 241 117 242 140 q 242 141 242 142 q 242 173 196 217 l 123 286 q 56 348 56 417 q 56 426 58 436 q 66 505 115 546 q 165 587 235 587 q 303 587 341 546 q 378 504 383 436 l 291 399 q 282 490 231 490 q 230 490 230 490 q 209 490 195 477 q 180 463 178 443 q 178 441 178 440 q 178 415 216 376 l 291 301 q 329 266 348 229 q 364 201 364 163 q 364 154 363 144 q 355 71 303 31 q 250 -9 175 -9 z"},">":{"x_min":0,"x_max":384,"ha":384,"o":"m 38 56 l 51 181 l 265 324 l 81 465 l 94 591 l 370 383 l 357 263 z"},"l":{"x_min":0,"x_max":251,"ha":251,"o":"m 37 0 l 122 810 l 256 810 l 171 0 z"},"8":{"x_min":0,"x_max":515,"ha":515,"o":"m 236 -10 q 179 -10 140 7 q 101 24 80 57 q 59 90 52 134 q 48 156 49 182 q 49 207 52 235 q 67 372 167 427 q 101 480 101 576 q 101 590 103 605 q 113 707 169 763 q 225 819 323 819 q 421 819 465 763 q 500 718 500 645 q 500 625 498 605 q 484 487 396 427 q 473 377 473 270 q 473 253 471 235 q 448 -10 236 -10 z m 339 229 q 341 249 341 266 q 341 363 275 363 q 197 363 182 229 q 179 211 179 193 q 179 187 180 180 q 181 155 186 136 q 191 118 207 106 q 223 94 247 94 q 271 94 289 105 q 307 117 316 138 q 326 159 331 180 q 336 201 339 229 z m 288 482 q 355 482 368 611 q 369 624 369 635 q 369 666 359 687 q 347 715 312 715 q 277 715 258 687 q 239 658 234 611 q 231 589 231 571 q 231 482 288 482 z"},"\\":{"x_min":0,"x_max":394,"ha":394,"o":"m 238 0 l 96 810 l 191 810 l 333 0 z"},"e":{"x_min":0,"x_max":444,"ha":444,"o":"m 201 -9 q 102 -9 64 46 q 36 88 37 161 q 37 184 39 209 l 56 368 q 67 477 116 532 q 165 587 263 587 q 315 587 349 571 q 383 555 398 525 q 415 495 419 452 q 420 436 420 418 q 420 389 416 354 l 408 282 l 180 282 l 171 197 q 168 168 167 144 q 167 141 167 138 q 167 117 176 104 q 187 88 210 88 q 239 88 252 108 q 265 128 268 166 l 273 210 l 400 210 l 396 176 q 387 86 338 39 q 289 -9 201 -9 z m 188 350 l 288 350 l 293 405 q 295 420 295 433 q 295 457 289 470 q 280 489 252 490 q 223 490 210 468 q 197 446 191 387 z"},"b":{"x_min":0,"x_max":475,"ha":475,"o":"m 269 -9 q 215 -9 168 42 l 164 0 l 30 0 l 115 810 l 249 810 l 220 534 q 278 587 340 587 q 340 587 341 587 q 363 587 381 579 q 399 572 411 560 q 423 547 432 531 q 440 514 444 496 q 447 479 449 459 q 451 441 451 427 q 451 425 451 422 q 451 406 449 389 l 429 205 q 425 161 414 124 q 402 87 384 56 q 365 26 335 9 q 306 -9 269 -9 z m 235 88 q 250 88 262 97 q 273 105 279 123 q 286 140 289 158 q 292 176 295 202 l 315 394 q 317 413 317 430 q 316 437 316 442 q 315 464 305 479 q 295 493 275 493 q 275 493 274 493 q 245 492 213 469 l 174 106 q 201 88 235 88 z"},"%":{"x_min":0,"x_max":962,"ha":962,"o":"m 238 458 q 257 458 270 467 q 283 475 290 491 q 298 507 302 525 q 305 542 308 568 l 313 614 q 315 642 315 663 q 315 666 315 669 q 315 692 303 705 q 291 718 265 718 q 249 718 238 713 q 226 708 219 700 q 212 692 207 677 q 203 663 200 649 q 198 635 196 614 l 191 568 q 188 541 188 520 q 188 516 188 512 q 189 488 201 473 q 213 458 238 458 z m 228 365 q 136 364 100 416 q 71 456 72 525 q 72 545 74 568 l 79 612 q 90 715 135 764 q 181 813 275 813 q 368 813 404 766 q 432 729 433 659 q 433 639 430 617 l 425 566 q 414 465 367 415 q 320 365 228 365 z m 733 90 q 752 90 765 98 q 778 106 786 123 q 793 139 797 156 q 800 174 803 200 l 808 246 q 811 276 811 298 q 811 300 811 301 q 811 324 799 337 q 787 350 761 350 q 745 350 733 345 q 722 340 715 332 q 708 324 703 309 q 698 294 696 281 q 693 267 691 246 l 687 200 q 685 174 685 152 q 685 148 685 144 q 685 120 697 105 q 709 90 733 90 z m 723 -3 q 632 -4 596 48 q 567 88 567 158 q 567 178 569 200 l 574 244 q 585 347 631 396 q 676 445 771 445 q 864 445 900 397 q 928 361 928 292 q 928 272 925 249 l 920 198 q 909 97 862 47 q 815 -3 723 -3 z m 295 0 l 607 810 l 704 810 l 392 0 z"},"m":{"x_min":0,"x_max":703,"ha":703,"o":"m 28 0 l 89 578 l 222 578 l 217 526 q 289 587 364 587 q 429 587 442 518 q 520 587 598 587 q 623 587 641 576 q 659 565 667 548 q 675 530 678 508 q 680 497 680 485 q 680 474 678 463 l 629 0 l 496 0 l 541 432 q 542 441 542 449 q 542 464 538 473 q 531 486 508 486 q 482 486 443 460 q 443 455 443 454 l 395 0 l 262 0 l 307 432 q 308 440 308 448 q 309 464 304 473 q 297 486 273 486 q 249 486 210 460 l 162 0 z"},"#":{"x_min":0,"x_max":507,"ha":507,"o":"m 20 0 l 86 282 l 41 282 l 52 374 l 110 374 l 132 471 l 62 471 l 73 564 l 156 564 l 215 810 l 327 810 l 269 564 l 352 564 l 411 810 l 522 810 l 464 564 l 507 564 l 497 471 l 440 471 l 417 374 l 486 374 l 475 282 l 394 282 l 327 0 l 215 0 l 282 282 l 199 282 l 132 0 z m 221 374 l 305 374 l 328 471 l 245 471 z"},",":{"x_min":0,"x_max":207,"ha":207,"o":"m 21 -137 l 11 -86 q 41 -79 61 -56 q 82 -34 85 0 l 15 0 l 29 130 l 161 130 l 148 8 q 135 -113 21 -137 z"},"n":{"x_min":0,"x_max":470,"ha":470,"o":"m 28 0 l 89 578 l 223 578 l 217 521 q 294 587 365 587 q 390 587 408 576 q 426 565 434 548 q 442 530 446 508 q 447 498 447 487 q 447 475 445 463 l 397 0 l 263 0 l 308 432 q 309 441 309 448 q 309 464 305 473 q 298 486 275 486 q 249 486 210 459 l 162 0 z"},"h":{"x_min":0,"x_max":475,"ha":475,"o":"m 30 0 l 115 810 l 249 810 l 219 521 q 295 587 370 587 q 404 587 424 568 q 443 549 449 522 q 452 507 452 489 q 452 477 450 463 l 402 0 l 268 0 l 313 432 q 314 441 314 449 q 313 464 310 473 q 303 486 280 486 q 253 486 212 457 l 164 0 z"},"z":{"x_min":0,"x_max":366,"ha":366,"o":"m 8 0 l 18 88 l 226 479 l 74 479 l 84 578 l 378 578 l 370 502 l 161 100 l 326 100 l 316 0 z"},"B":{"x_min":0,"x_max":552,"ha":552,"o":"m 36 0 l 121 810 l 318 810 q 375 810 415 799 q 456 789 485 766 q 515 743 526 702 q 534 675 535 642 q 535 624 532 604 q 515 452 396 436 q 466 421 496 372 q 519 334 519 274 q 519 255 517 234 q 505 120 441 60 q 377 0 267 0 z m 191 102 l 247 102 q 293 102 320 117 q 348 131 361 159 q 374 188 379 235 q 380 252 380 267 q 380 316 361 343 q 335 376 268 376 l 220 376 z m 231 479 l 278 479 q 344 479 372 507 q 399 535 406 602 q 408 614 408 625 q 408 639 405 649 q 401 669 393 680 q 384 692 365 698 q 347 704 327 706 q 307 708 275 708 l 255 708 z"},"K":{"x_min":0,"x_max":526,"ha":526,"o":"m 36 0 l 121 810 l 266 810 l 229 456 l 427 810 l 564 810 l 371 448 l 497 0 l 353 0 l 251 383 l 215 328 l 181 0 z"},"R":{"x_min":0,"x_max":547,"ha":547,"o":"m 36 0 l 121 810 l 303 810 q 367 810 412 799 q 457 788 488 763 q 519 739 531 697 q 539 669 539 633 q 539 615 537 594 q 521 440 416 399 l 491 0 l 349 0 l 287 370 l 220 370 l 181 0 z m 229 464 l 264 464 q 330 464 361 491 q 393 519 400 587 q 401 604 401 617 q 401 660 385 682 q 364 710 298 710 l 255 710 z"},"T":{"x_min":0,"x_max":420,"ha":420,"o":"m 116 0 l 189 703 l 53 703 l 64 810 l 478 810 l 466 703 l 333 703 l 260 0 z"},"P":{"x_min":0,"x_max":512,"ha":512,"o":"m 36 0 l 121 810 l 350 810 q 457 810 501 751 q 536 705 535 626 q 535 604 533 580 q 521 469 459 416 q 397 364 295 364 l 219 364 l 181 0 z m 229 465 l 276 465 q 340 465 365 490 q 390 515 397 581 q 400 608 400 630 q 400 645 399 655 q 395 684 373 696 q 351 708 302 708 l 255 708 z"},"|":{"x_min":0,"x_max":252,"ha":252,"o":"m 25 -161 l 128 810 l 246 810 l 143 -161 z"},"t":{"x_min":0,"x_max":330,"ha":330,"o":"m 188 -8 q 149 -7 123 5 q 97 18 84 40 q 72 62 68 92 q 66 106 66 123 q 66 140 68 159 l 104 489 l 46 489 l 56 578 l 112 578 l 130 748 l 265 748 l 247 578 l 335 578 l 326 489 l 238 489 l 202 153 q 202 147 202 142 q 201 122 210 111 q 221 99 249 98 q 268 98 291 101 l 280 -1 q 221 -8 192 -8 q 190 -8 188 -8 z"},"M":{"x_min":0,"x_max":679,"ha":679,"o":"m 34 0 l 133 810 l 280 810 l 339 231 l 522 810 l 667 810 l 596 0 l 486 0 l 536 560 l 358 0 l 274 0 l 213 561 l 146 0 z"},"g":{"x_min":0,"x_max":460,"ha":460,"o":"m 208 -175 q 182 -175 162 -175 q 143 -174 118 -172 q 93 -170 75 -166 q 58 -162 39 -155 q 21 -148 10 -138 q -1 -128 -7 -113 q -11 -102 -11 -88 q -11 -83 -11 -79 q -2 -3 83 44 q 29 64 29 107 q 29 140 48 164 q 66 186 106 216 q 77 241 64 278 q 57 302 57 336 q 57 355 59 377 q 81 587 258 587 q 349 587 375 530 q 387 542 411 561 q 435 579 460 590 l 480 599 l 503 523 q 486 519 449 505 q 413 492 401 485 q 408 468 412 437 q 414 420 414 404 q 414 390 412 375 q 391 177 220 177 q 206 177 182 181 q 158 185 152 188 q 133 163 132 150 q 132 139 143 133 q 155 127 181 125 q 185 125 229 120 q 274 116 283 114 q 354 106 384 72 q 408 44 409 -3 q 409 -14 407 -26 q 398 -104 352 -139 q 306 -175 208 -175 z m 217 -80 q 259 -80 279 -69 q 299 -58 303 -34 q 304 -28 304 -23 q 304 -5 293 4 q 279 17 241 20 l 150 28 q 115 -8 113 -36 q 112 -39 112 -42 q 112 -54 118 -61 q 124 -70 148 -75 q 171 -80 217 -80 z m 226 265 q 260 265 273 290 q 287 315 294 380 q 298 417 298 442 q 298 444 298 447 q 297 474 287 487 q 276 500 251 500 q 216 500 203 474 q 190 447 183 380 q 180 350 180 327 q 180 322 180 318 q 181 293 192 279 q 203 265 226 265 z"},"j":{"x_min":0,"x_max":250,"ha":250,"o":"m -55 -148 l -45 -52 q -32 -56 -17 -56 q 36 -56 42 4 l 102 578 l 236 578 l 174 -11 q 167 -80 125 -119 q 82 -158 13 -158 q -28 -158 -55 -148 z m 111 669 l 124 784 l 259 784 l 247 669 z"},"i":{"x_min":0,"x_max":247,"ha":247,"o":"m 33 0 l 93 578 l 227 578 l 167 0 z m 103 669 l 115 784 l 250 784 l 237 669 z"},"y":{"x_min":0,"x_max":415,"ha":415,"o":"m 14 -153 l 24 -56 q 87 -56 108 -44 q 126 -34 126 -3 q 126 1 126 7 q 124 28 115 91 l 43 578 l 175 578 l 207 194 l 310 578 l 442 578 l 241 -30 q 218 -98 166 -126 q 114 -154 33 -153 q 31 -153 30 -153 z"},"@":{"x_min":0,"x_max":933,"ha":933,"o":"m 435 -135 q 235 -135 135 -21 q 58 67 58 210 q 58 253 65 302 q 82 425 128 521 q 173 618 242 681 q 310 744 399 777 q 488 810 592 810 q 646 810 693 798 q 739 787 774 767 q 809 746 836 718 q 864 689 880 654 q 896 620 907 580 q 917 540 917 497 q 917 455 912 410 q 904 351 882 296 q 859 241 824 196 q 789 150 738 123 q 687 95 628 95 q 584 95 555 118 q 526 141 524 180 q 511 148 486 126 q 460 104 423 100 q 415 99 407 99 q 365 99 336 122 q 301 148 289 192 q 281 221 281 254 q 281 271 283 290 q 288 331 302 374 q 316 417 341 459 q 365 501 396 534 q 426 567 467 587 q 507 607 551 607 q 583 607 614 565 l 627 600 l 729 600 l 639 244 q 636 233 635 228 q 634 223 632 212 q 630 202 630 196 q 630 190 632 184 q 633 177 637 173 q 641 170 647 169 q 650 169 653 169 q 707 169 754 235 q 804 305 816 402 q 822 433 822 463 q 822 473 821 483 q 819 522 810 557 q 802 592 782 622 q 762 651 734 672 q 706 693 665 705 q 624 717 573 717 q 465 717 381 664 q 296 611 244 519 q 193 427 176 306 q 169 262 169 224 q 169 116 223 49 q 294 -42 457 -42 q 549 -42 647 -12 l 657 -102 q 537 -135 435 -135 z m 461 197 q 481 200 501 219 q 522 237 533 271 l 590 502 q 584 509 566 509 q 528 509 492 478 q 456 446 433 396 q 409 346 403 290 q 402 278 402 269 q 402 239 413 219 q 424 196 451 196 q 456 196 461 197 z"},".":{"x_min":0,"x_max":211,"ha":211,"o":"m 21 0 l 36 134 l 166 134 l 152 0 z"},"p":{"x_min":0,"x_max":474,"ha":474,"o":"m 8 -190 l 89 578 l 223 578 l 218 534 q 277 587 338 587 q 339 587 339 587 q 362 587 380 579 q 398 572 410 560 q 422 547 430 531 q 438 514 442 496 q 446 479 448 459 q 450 441 450 427 q 449 425 449 422 q 449 406 447 389 l 428 205 q 424 161 413 124 q 401 87 383 56 q 364 26 334 9 q 305 -9 268 -9 q 213 -9 167 43 l 142 -190 z m 233 88 q 249 88 260 97 q 271 105 278 123 q 284 140 288 158 q 291 176 293 202 l 314 394 q 315 413 315 430 q 315 437 315 442 q 314 464 304 479 q 293 493 274 493 q 273 493 272 493 q 246 492 211 470 l 173 107 q 201 88 233 88 z"},"X":{"x_min":0,"x_max":497,"ha":497,"o":"m -14 0 l 194 429 l 75 810 l 210 810 l 291 556 l 409 810 l 537 810 l 336 405 l 463 0 l 328 0 l 242 274 l 113 0 z"},"*":{"x_min":0,"x_max":412,"ha":412,"o":"m 185 459 l 111 506 l 197 612 l 89 656 l 129 738 l 229 681 l 229 809 l 330 809 l 303 681 l 415 738 l 438 655 l 320 612 l 385 506 l 300 459 l 255 577 z"},"Y":{"x_min":0,"x_max":487,"ha":487,"o":"m 151 0 l 183 306 l 70 810 l 205 810 l 272 480 l 405 810 l 539 810 l 321 306 l 289 0 z"},"c":{"x_min":0,"x_max":436,"ha":436,"o":"m 199 -9 q 148 -9 114 6 q 80 21 62 50 q 45 78 39 118 q 36 137 36 159 q 36 182 39 208 l 56 371 q 67 477 115 532 q 163 587 262 587 q 354 587 390 543 q 418 509 418 445 q 418 428 417 408 l 412 362 l 287 362 l 292 410 q 294 426 294 439 q 294 462 288 473 q 279 491 253 491 q 223 491 211 470 q 198 449 192 391 l 171 184 q 168 161 168 145 q 168 118 174 106 q 183 87 211 87 q 239 87 250 106 q 262 125 267 165 l 273 225 l 397 225 l 392 172 q 382 82 336 36 q 289 -9 199 -9 z"},"!":{"x_min":0,"x_max":227,"ha":227,"o":"m 22 0 l 36 130 l 166 130 l 152 0 z m 83 186 l 108 809 l 241 809 l 130 186 z"},"/":{"x_min":0,"x_max":394,"ha":394,"o":"m 11 0 l 323 810 l 418 810 l 106 0 z"},"[":{"x_min":0,"x_max":344,"ha":344,"o":"m 13 -189 l 119 810 l 358 810 l 352 750 l 233 750 l 141 -128 l 259 -128 l 253 -189 z"},"6":{"x_min":0,"x_max":515,"ha":515,"o":"m 238 -10 q 184 -10 145 11 q 106 32 85 69 q 64 105 58 153 q 54 180 54 208 q 54 232 56 258 l 84 530 q 90 580 100 621 q 110 662 129 700 q 147 737 174 763 q 200 789 238 804 q 277 819 325 819 q 510 819 510 646 q 510 632 508 616 q 508 614 508 610 q 507 605 507 604 l 375 604 q 377 621 377 636 q 377 668 369 686 q 357 712 314 712 q 275 712 253 672 q 232 632 222 543 l 212 444 q 248 497 327 498 q 329 498 330 498 q 480 498 480 320 q 480 295 477 266 q 471 205 455 157 q 438 108 410 70 q 382 32 339 11 q 295 -10 238 -10 z m 250 97 q 272 97 288 107 q 304 118 314 139 q 324 159 330 183 q 335 207 338 238 q 340 255 341 265 q 342 275 343 291 q 344 302 344 309 q 344 312 344 315 q 343 324 342 337 q 341 350 338 357 q 335 364 331 373 q 326 381 319 385 q 312 389 303 392 q 293 395 281 395 q 256 395 235 381 q 215 367 202 347 l 189 225 q 188 207 188 191 q 188 176 188 163 q 190 135 206 116 q 222 97 250 97 z"},"r":{"x_min":0,"x_max":344,"ha":344,"o":"m 30 0 l 91 578 l 225 578 l 216 490 q 280 585 348 585 q 358 585 368 583 l 354 449 q 331 458 305 458 q 276 457 253 444 q 230 431 206 399 l 164 0 z"},"2":{"x_min":0,"x_max":515,"ha":515,"o":"m 24 0 l 34 96 l 265 406 q 273 417 289 438 q 305 459 313 470 q 321 481 333 500 q 346 519 352 534 q 359 548 365 568 q 371 588 373 608 q 375 622 375 633 q 375 664 364 682 q 351 706 318 706 q 316 706 314 706 q 238 703 224 574 l 220 541 l 86 541 l 90 575 q 103 690 159 755 q 216 819 325 819 q 427 819 473 764 q 510 719 510 644 q 510 626 508 607 q 507 592 504 577 q 500 562 498 550 q 495 538 488 523 q 481 508 478 499 q 475 491 465 475 q 456 460 452 454 q 448 448 436 431 q 424 415 421 411 q 418 406 404 388 q 390 370 388 367 l 192 110 l 436 110 l 424 0 z"},"{":{"x_min":0,"x_max":335,"ha":335,"o":"m 264 -197 q 227 -197 200 -195 q 174 -193 152 -188 q 131 -183 117 -177 q 104 -170 94 -157 q 84 -145 80 -131 q 75 -118 74 -95 q 74 -84 74 -74 q 74 -62 75 -49 q 76 -26 80 10 l 93 129 q 96 162 98 182 q 99 194 99 205 q 99 212 98 219 q 97 235 94 243 q 92 251 85 257 q 78 263 70 264 q 61 266 46 266 l 56 359 q 78 359 89 363 q 100 366 109 382 q 118 397 122 422 q 126 446 131 495 l 144 615 q 147 650 151 673 q 154 696 160 719 q 166 742 173 756 q 181 769 193 782 q 205 795 220 801 q 235 808 258 813 q 280 818 307 820 q 334 821 371 821 l 361 727 q 343 727 332 726 q 321 725 312 719 q 302 714 298 708 q 293 702 289 687 q 284 671 282 656 q 280 640 277 611 l 263 478 q 255 400 232 361 q 210 321 170 312 q 208 303 222 264 q 231 239 231 199 q 231 175 228 146 l 214 13 q 212 -8 211 -21 q 209 -35 209 -48 q 209 -62 210 -69 q 211 -76 215 -83 q 218 -90 222 -93 q 227 -96 234 -98 q 242 -101 251 -102 q 260 -102 274 -102 z"},"9":{"x_min":0,"x_max":515,"ha":515,"o":"m 230 -10 q 46 -10 46 163 q 46 179 47 196 q 47 197 48 200 q 48 204 49 205 l 181 205 q 179 187 179 172 q 179 142 187 124 q 199 98 242 98 q 281 98 302 137 q 323 176 333 267 l 343 365 q 307 313 228 312 q 227 312 225 312 q 76 312 76 492 q 76 518 79 547 q 85 607 102 656 q 119 704 147 741 q 175 778 218 799 q 262 819 317 819 q 372 819 411 799 q 450 778 470 742 q 491 706 499 659 q 502 633 502 604 q 502 580 500 555 l 471 280 q 466 230 456 189 q 445 147 427 110 q 408 72 382 46 q 355 21 317 5 q 278 -10 230 -10 z m 275 415 q 322 415 353 463 l 366 584 q 368 604 368 622 q 368 713 306 713 q 265 713 246 675 q 226 638 218 571 q 216 550 215 541 q 214 531 213 513 q 213 503 213 497 q 213 490 213 485 q 214 477 216 463 q 218 449 223 442 q 228 435 234 428 q 241 420 251 417 q 262 415 275 415 z"}," ":{"x_min":0,"x_max":233,"ha":233,"o":""},"I":{"x_min":0,"x_max":272,"ha":272,"o":"m 41 0 l 126 810 l 268 810 l 183 0 z"},"H":{"x_min":0,"x_max":579,"ha":579,"o":"m 36 0 l 121 810 l 266 810 l 230 470 l 399 470 l 435 810 l 579 810 l 494 0 l 350 0 l 388 367 l 219 367 l 181 0 z"},"4":{"x_min":0,"x_max":515,"ha":515,"o":"m 249 0 l 270 199 l 32 199 l 46 327 l 302 810 l 462 810 l 410 313 l 495 313 l 483 199 l 398 199 l 377 0 z m 164 313 l 281 313 l 317 658 z"},"~":{"x_min":0,"x_max":467,"ha":467,"o":"m 324 349 q 302 349 272 364 q 243 378 216 393 q 189 408 172 408 q 159 408 137 396 q 115 384 96 366 l 57 427 q 83 457 122 483 q 161 509 187 509 q 209 509 238 494 q 267 480 294 466 q 321 451 338 451 q 360 451 413 495 l 455 439 q 430 406 392 378 q 354 349 324 349 z"},"D":{"x_min":0,"x_max":550,"ha":550,"o":"m 191 102 l 235 102 q 266 102 288 109 q 309 117 321 128 q 333 138 342 164 q 350 189 353 208 q 355 228 360 270 l 391 561 q 395 594 395 620 q 395 633 394 645 q 391 677 368 691 q 346 706 296 706 l 255 706 z m 36 0 l 121 810 l 308 810 q 381 810 428 795 q 476 780 502 749 q 528 717 536 671 q 541 646 541 616 q 541 589 537 558 l 506 266 q 499 196 481 148 q 463 100 431 66 q 398 32 349 16 q 299 0 229 0 z"},"^":{"x_min":0,"x_max":464,"ha":464,"o":"m 59 479 l 232 810 l 353 810 l 457 479 l 335 479 l 281 703 l 180 479 z"},"0":{"x_min":0,"x_max":515,"ha":515,"o":"m 244 105 q 317 105 329 228 l 366 579 q 368 595 368 612 q 368 617 368 622 q 367 645 363 663 q 358 681 344 692 q 330 703 307 703 q 284 703 268 692 q 251 682 242 662 q 233 642 229 623 q 225 604 222 579 l 185 228 q 183 208 183 193 q 183 105 244 105 z m 232 -11 q 130 -11 83 54 q 45 106 45 186 q 45 205 47 226 l 84 581 q 96 692 155 755 q 214 819 319 819 q 423 819 469 755 q 506 704 506 624 q 506 603 503 581 l 466 226 q 455 118 394 54 q 333 -11 232 -11 z"},"F":{"x_min":0,"x_max":408,"ha":408,"o":"m 36 0 l 121 810 l 452 810 l 442 709 l 255 709 l 230 471 l 378 471 l 368 369 l 219 369 l 181 0 z"},"`":{"x_min":0,"x_max":297,"ha":297,"o":"m 211 610 l 112 810 l 248 810 l 286 610 z"},"k":{"x_min":0,"x_max":476,"ha":476,"o":"m 30 1 l 115 811 l 248 811 l 199 346 l 368 578 l 513 578 l 348 347 l 450 0 l 310 0 l 237 285 l 186 222 l 163 1 z"},"u":{"x_min":0,"x_max":469,"ha":469,"o":"m 117 -9 q 91 -9 73 2 q 56 12 47 31 q 39 50 36 70 q 35 81 35 93 q 35 104 36 115 l 84 578 l 218 578 l 173 144 q 172 136 172 129 q 172 113 177 104 q 184 90 206 90 q 207 90 207 90 q 232 90 269 116 l 318 578 l 452 578 l 391 0 l 257 0 l 263 54 q 187 -9 117 -9 z"},"]":{"x_min":0,"x_max":319,"ha":319,"o":"m -22 -189 l -16 -128 l 104 -128 l 195 749 l 76 749 l 83 810 l 322 810 l 217 -189 z"},"U":{"x_min":0,"x_max":561,"ha":561,"o":"m 255 -10 q 188 -10 145 10 q 102 29 82 66 q 62 103 56 155 q 53 176 54 200 q 54 234 59 273 l 115 810 l 254 810 l 197 260 q 194 230 193 210 q 192 205 192 199 q 192 183 195 167 q 198 144 205 130 q 213 117 229 108 q 244 99 267 99 q 290 99 307 108 q 324 117 335 131 q 345 144 353 167 q 360 189 363 209 q 367 230 370 260 l 428 810 l 567 810 l 511 273 q 505 218 495 176 q 484 134 465 98 q 446 62 419 39 q 391 16 350 3 q 309 -10 255 -10 z"},"o":{"x_min":0,"x_max":451,"ha":451,"o":"m 209 86 q 224 86 234 92 q 244 97 250 105 q 256 114 261 128 q 265 143 267 155 q 269 167 271 186 l 292 392 q 294 419 295 441 q 295 443 295 444 q 295 464 285 478 q 274 492 252 492 q 239 492 228 486 q 218 480 212 472 q 206 464 201 449 q 197 435 195 423 q 193 411 191 392 l 169 186 q 167 152 167 135 q 167 114 177 101 q 187 86 209 86 z m 66 44 q 35 86 36 156 q 36 175 38 195 l 57 383 q 68 481 118 534 q 169 587 262 587 q 355 587 396 534 q 427 492 427 423 q 427 404 425 383 l 405 195 q 395 97 344 44 q 293 -9 199 -9 q 105 -9 66 44 z"},"N":{"x_min":0,"x_max":542,"ha":542,"o":"m 36 0 l 121 810 l 220 810 l 373 344 l 421 810 l 541 810 l 456 0 l 362 0 l 210 488 l 159 0 z"},"+":{"x_min":0,"x_max":433,"ha":433,"o":"m 165 207 l 182 371 l 40 371 l 50 461 l 191 461 l 208 623 l 303 623 l 286 461 l 432 461 l 422 371 l 276 371 l 259 207 z"},"G":{"x_min":0,"x_max":555,"ha":555,"o":"m 236 -11 q 178 -11 138 8 q 98 27 77 63 q 57 101 50 152 q 46 177 46 204 q 46 235 51 270 l 79 533 q 84 589 96 632 q 107 675 127 711 q 146 747 175 770 q 204 793 244 806 q 285 819 337 819 q 457 818 503 760 q 539 714 539 630 q 539 607 536 581 l 532 543 l 394 543 l 398 583 q 401 614 401 638 q 401 646 401 653 q 399 682 382 697 q 365 712 329 712 q 309 712 293 707 q 278 702 268 691 q 257 680 250 669 q 244 657 239 638 q 234 619 232 604 q 230 589 228 565 l 194 243 q 191 217 191 196 q 191 156 201 133 q 216 98 268 98 q 320 98 344 136 q 368 174 376 252 l 383 316 l 294 316 l 304 410 l 523 410 l 479 0 l 386 0 l 384 83 q 337 -11 236 -11 z"},"q":{"x_min":0,"x_max":471,"ha":471,"o":"m 241 -190 l 265 40 q 212 -9 160 -9 q 159 -9 158 -9 q 88 -9 59 42 q 38 78 37 145 q 37 172 41 204 l 57 365 q 80 587 220 587 q 274 587 318 542 l 321 578 l 455 578 l 375 -190 z m 216 88 q 240 88 272 104 l 311 473 q 284 491 257 491 q 229 491 214 466 q 199 440 195 400 l 173 193 q 171 171 171 152 q 171 146 171 141 q 172 117 183 103 q 194 88 216 88 z"},"d":{"x_min":0,"x_max":470,"ha":470,"o":"m 159 -9 q 159 -9 158 -9 q 87 -9 58 42 q 37 78 37 145 q 37 172 40 204 l 57 365 q 62 412 72 450 q 83 488 102 520 q 121 552 150 569 q 180 587 219 587 q 273 587 316 542 l 344 810 l 478 810 l 393 0 l 259 0 l 264 39 q 212 -9 159 -9 z m 215 88 q 240 88 271 104 l 309 473 q 283 491 257 491 q 204 491 194 400 l 173 193 q 171 169 171 148 q 171 145 171 141 q 171 117 182 103 q 193 88 215 88 z"},"1":{"x_min":0,"x_max":515,"ha":515,"o":"m 197 0 l 265 654 l 129 620 l 140 722 q 269 761 313 810 l 417 810 l 333 0 z"},"5":{"x_min":0,"x_max":515,"ha":515,"o":"m 235 -11 q 176 -11 137 6 q 98 23 79 56 q 61 88 55 133 q 52 153 52 176 q 52 203 56 234 l 189 234 q 187 208 186 189 q 186 186 186 182 q 186 167 188 152 q 190 132 197 121 q 204 109 218 101 q 231 94 251 94 q 267 94 279 99 q 291 104 300 112 q 308 119 315 134 q 322 148 326 160 q 330 172 334 195 q 337 217 339 232 q 341 248 344 275 q 349 324 349 357 q 349 392 333 411 q 317 431 284 431 q 255 431 233 412 q 210 392 199 362 l 82 362 l 135 810 l 501 810 l 488 684 l 238 684 l 210 491 q 229 509 258 520 q 288 531 323 532 q 328 532 332 532 q 418 532 453 471 q 480 422 480 343 q 480 316 478 287 q 472 233 462 192 q 453 150 435 111 q 417 71 391 46 q 365 20 325 5 q 286 -11 235 -11 z"}}}
